<mxfile host="app.diagrams.net" modified="2022-11-15T20:14:18.770Z" agent="5.0 (Windows NT 10.0; Win64; x64) AppleWebKit/537.36 (KHTML, like Gecko) Chrome/106.0.0.0 Safari/537.36 OPR/92.0.0.0" etag="tDUpMoLDfzd0GIcov8UD" version="20.5.3" type="github" pages="4">
  <diagram id="prtHgNgQTEPvFCAcTncT" name="Page-1">
    <mxGraphModel dx="978" dy="495" grid="1" gridSize="10" guides="1" tooltips="1" connect="1" arrows="1" fold="1" page="1" pageScale="1" pageWidth="827" pageHeight="1169" math="0" shadow="0">
      <root>
        <mxCell id="0" />
        <mxCell id="1" parent="0" />
        <mxCell id="Xbx-082tW33KEw9Ka395-13" value="&lt;hr&gt;" style="ellipse;whiteSpace=wrap;html=1;rounded=1;shadow=0;glass=0;sketch=0;strokeColor=#000000;" vertex="1" parent="1">
          <mxGeometry x="354" y="440" width="136" height="80" as="geometry" />
        </mxCell>
        <mxCell id="Xbx-082tW33KEw9Ka395-17" value="" style="line;strokeWidth=4;direction=south;html=1;perimeter=backbonePerimeter;points=[];outlineConnect=0;rounded=1;shadow=0;glass=0;sketch=0;strokeColor=#000000;" vertex="1" parent="1">
          <mxGeometry x="370" y="450" width="10" height="61.25" as="geometry" />
        </mxCell>
        <UserObject label="Geschäftsführung" placeholders="1" name="Variable" id="Xbx-082tW33KEw9Ka395-18">
          <mxCell style="text;html=1;strokeColor=none;fillColor=none;align=center;verticalAlign=middle;whiteSpace=wrap;overflow=hidden;rounded=1;shadow=0;glass=0;sketch=0;" vertex="1" parent="1">
            <mxGeometry x="380" y="470" width="100" height="20" as="geometry" />
          </mxCell>
        </UserObject>
        <mxCell id="Xbx-082tW33KEw9Ka395-22" value="&lt;hr&gt;" style="ellipse;whiteSpace=wrap;html=1;rounded=1;shadow=0;glass=0;sketch=0;strokeColor=#000000;" vertex="1" parent="1">
          <mxGeometry x="354" y="600.62" width="136" height="80" as="geometry" />
        </mxCell>
        <mxCell id="Xbx-082tW33KEw9Ka395-23" value="" style="line;strokeWidth=4;direction=south;html=1;perimeter=backbonePerimeter;points=[];outlineConnect=0;rounded=1;shadow=0;glass=0;sketch=0;strokeColor=#000000;" vertex="1" parent="1">
          <mxGeometry x="370" y="610.62" width="20" height="61.25" as="geometry" />
        </mxCell>
        <UserObject label="Zimmerservice" placeholders="1" name="Variable" id="Xbx-082tW33KEw9Ka395-24">
          <mxCell style="text;html=1;strokeColor=none;fillColor=none;align=center;verticalAlign=middle;whiteSpace=wrap;overflow=hidden;rounded=1;shadow=0;glass=0;sketch=0;" vertex="1" parent="1">
            <mxGeometry x="380" y="630.62" width="100" height="20" as="geometry" />
          </mxCell>
        </UserObject>
        <mxCell id="Xbx-082tW33KEw9Ka395-25" value="&lt;hr&gt;" style="ellipse;whiteSpace=wrap;html=1;rounded=1;shadow=0;glass=0;sketch=0;strokeColor=#000000;" vertex="1" parent="1">
          <mxGeometry x="580" y="600" width="136" height="80" as="geometry" />
        </mxCell>
        <mxCell id="Xbx-082tW33KEw9Ka395-26" value="" style="line;strokeWidth=4;direction=south;html=1;perimeter=backbonePerimeter;points=[];outlineConnect=0;rounded=1;shadow=0;glass=0;sketch=0;strokeColor=#000000;" vertex="1" parent="1">
          <mxGeometry x="596" y="610" width="10" height="61.25" as="geometry" />
        </mxCell>
        <UserObject label="Küche" placeholders="1" name="Variable" id="Xbx-082tW33KEw9Ka395-27">
          <mxCell style="text;html=1;strokeColor=none;fillColor=none;align=center;verticalAlign=middle;whiteSpace=wrap;overflow=hidden;rounded=1;shadow=0;glass=0;sketch=0;" vertex="1" parent="1">
            <mxGeometry x="606" y="630" width="100" height="20" as="geometry" />
          </mxCell>
        </UserObject>
        <mxCell id="Xbx-082tW33KEw9Ka395-30" value="" style="endArrow=classic;html=1;rounded=0;entryX=0.065;entryY=0.289;entryDx=0;entryDy=0;entryPerimeter=0;" edge="1" parent="1" target="Xbx-082tW33KEw9Ka395-25">
          <mxGeometry relative="1" as="geometry">
            <mxPoint x="422" y="520" as="sourcePoint" />
            <mxPoint x="520" y="540" as="targetPoint" />
            <Array as="points">
              <mxPoint x="420" y="560" />
            </Array>
          </mxGeometry>
        </mxCell>
        <mxCell id="Xbx-082tW33KEw9Ka395-36" value="" style="endArrow=classic;html=1;rounded=0;entryX=0.298;entryY=0.058;entryDx=0;entryDy=0;entryPerimeter=0;" edge="1" parent="1" target="Xbx-082tW33KEw9Ka395-22">
          <mxGeometry width="50" height="50" relative="1" as="geometry">
            <mxPoint x="422" y="560" as="sourcePoint" />
            <mxPoint x="404" y="535" as="targetPoint" />
          </mxGeometry>
        </mxCell>
        <mxCell id="Xbx-082tW33KEw9Ka395-38" value="" style="swimlane;horizontal=0;whiteSpace=wrap;html=1;rounded=1;shadow=0;glass=0;sketch=0;strokeColor=#000000;" vertex="1" parent="1">
          <mxGeometry x="576" y="455.63" width="160" height="50" as="geometry" />
        </mxCell>
        <mxCell id="Xbx-082tW33KEw9Ka395-39" value="Manager" style="text;html=1;align=center;verticalAlign=middle;resizable=0;points=[];autosize=1;strokeColor=none;fillColor=none;rounded=1;shadow=0;glass=0;sketch=0;" vertex="1" parent="Xbx-082tW33KEw9Ka395-38">
          <mxGeometry x="45" y="10" width="70" height="30" as="geometry" />
        </mxCell>
        <mxCell id="Xbx-082tW33KEw9Ka395-40" value="" style="endArrow=classic;rounded=0;exitX=0;exitY=0.5;exitDx=0;exitDy=0;html=1;entryX=1;entryY=0.5;entryDx=0;entryDy=0;" edge="1" parent="1" source="Xbx-082tW33KEw9Ka395-38" target="Xbx-082tW33KEw9Ka395-13">
          <mxGeometry width="50" height="50" relative="1" as="geometry">
            <mxPoint x="500" y="440" as="sourcePoint" />
            <mxPoint x="490" y="480" as="targetPoint" />
          </mxGeometry>
        </mxCell>
        <mxCell id="Xbx-082tW33KEw9Ka395-44" value="Hans Leiter" style="rounded=0;whiteSpace=wrap;html=1;shadow=0;glass=0;sketch=0;strokeColor=#000000;" vertex="1" parent="1">
          <mxGeometry x="810" y="460" width="120" height="40" as="geometry" />
        </mxCell>
        <mxCell id="Xbx-082tW33KEw9Ka395-52" value="" style="swimlane;horizontal=0;whiteSpace=wrap;html=1;rounded=1;shadow=0;glass=0;sketch=0;strokeColor=#000000;" vertex="1" parent="1">
          <mxGeometry x="200" y="720" width="160" height="50" as="geometry" />
        </mxCell>
        <mxCell id="Xbx-082tW33KEw9Ka395-53" value="Kellner" style="text;html=1;align=center;verticalAlign=middle;resizable=0;points=[];autosize=1;strokeColor=none;fillColor=none;rounded=1;shadow=0;glass=0;sketch=0;" vertex="1" parent="Xbx-082tW33KEw9Ka395-52">
          <mxGeometry x="50" y="10" width="60" height="30" as="geometry" />
        </mxCell>
        <mxCell id="Xbx-082tW33KEw9Ka395-54" value="" style="endArrow=classic;html=1;rounded=0;entryX=0.044;entryY=0.742;entryDx=0;entryDy=0;entryPerimeter=0;exitX=0.75;exitY=0;exitDx=0;exitDy=0;" edge="1" parent="1" source="Xbx-082tW33KEw9Ka395-52" target="Xbx-082tW33KEw9Ka395-22">
          <mxGeometry width="50" height="50" relative="1" as="geometry">
            <mxPoint x="360" y="674.74" as="sourcePoint" />
            <mxPoint x="332.528" y="720" as="targetPoint" />
          </mxGeometry>
        </mxCell>
        <mxCell id="Xbx-082tW33KEw9Ka395-56" value="Tina Kellner" style="rounded=0;whiteSpace=wrap;html=1;shadow=0;glass=0;sketch=0;strokeColor=#000000;" vertex="1" parent="1">
          <mxGeometry x="20" y="720" width="120" height="40" as="geometry" />
        </mxCell>
        <mxCell id="Xbx-082tW33KEw9Ka395-57" value="" style="endArrow=none;html=1;rounded=0;entryX=0;entryY=0.5;entryDx=0;entryDy=0;exitX=1;exitY=0.5;exitDx=0;exitDy=0;" edge="1" parent="1" source="Xbx-082tW33KEw9Ka395-38" target="Xbx-082tW33KEw9Ka395-44">
          <mxGeometry width="50" height="50" relative="1" as="geometry">
            <mxPoint x="736" y="520" as="sourcePoint" />
            <mxPoint x="786" y="470" as="targetPoint" />
          </mxGeometry>
        </mxCell>
        <mxCell id="Xbx-082tW33KEw9Ka395-58" value="" style="endArrow=none;html=1;rounded=0;entryX=0;entryY=0.5;entryDx=0;entryDy=0;" edge="1" parent="1" source="Xbx-082tW33KEw9Ka395-56" target="Xbx-082tW33KEw9Ka395-52">
          <mxGeometry width="50" height="50" relative="1" as="geometry">
            <mxPoint x="80" y="59.289321881345245" as="sourcePoint" />
            <mxPoint x="430" y="921.578947368421" as="targetPoint" />
          </mxGeometry>
        </mxCell>
        <mxCell id="Xbx-082tW33KEw9Ka395-59" value="&lt;hr&gt;" style="ellipse;whiteSpace=wrap;html=1;rounded=1;shadow=0;glass=0;sketch=0;strokeColor=#000000;" vertex="1" parent="1">
          <mxGeometry x="510" y="680.62" width="136" height="80" as="geometry" />
        </mxCell>
        <mxCell id="Xbx-082tW33KEw9Ka395-60" value="" style="line;strokeWidth=4;direction=south;html=1;perimeter=backbonePerimeter;points=[];outlineConnect=0;rounded=1;shadow=0;glass=0;sketch=0;strokeColor=#000000;" vertex="1" parent="1">
          <mxGeometry x="526" y="690.62" width="10" height="61.25" as="geometry" />
        </mxCell>
        <UserObject label="Bar" placeholders="1" name="Variable" id="Xbx-082tW33KEw9Ka395-61">
          <mxCell style="text;html=1;strokeColor=none;fillColor=none;align=center;verticalAlign=middle;whiteSpace=wrap;overflow=hidden;rounded=1;shadow=0;glass=0;sketch=0;" vertex="1" parent="1">
            <mxGeometry x="536" y="710.62" width="100" height="20" as="geometry" />
          </mxCell>
        </UserObject>
        <mxCell id="Xbx-082tW33KEw9Ka395-62" value="" style="endArrow=classic;html=1;rounded=0;" edge="1" parent="1">
          <mxGeometry width="50" height="50" relative="1" as="geometry">
            <mxPoint x="420" y="560" as="sourcePoint" />
            <mxPoint x="550" y="680" as="targetPoint" />
          </mxGeometry>
        </mxCell>
        <mxCell id="Xbx-082tW33KEw9Ka395-63" value="" style="swimlane;horizontal=0;whiteSpace=wrap;html=1;rounded=1;shadow=0;glass=0;sketch=0;strokeColor=#000000;" vertex="1" parent="1">
          <mxGeometry x="510" y="810" width="160" height="50" as="geometry" />
        </mxCell>
        <mxCell id="Xbx-082tW33KEw9Ka395-64" value="Barkeeper" style="text;html=1;align=center;verticalAlign=middle;resizable=0;points=[];autosize=1;strokeColor=none;fillColor=none;rounded=1;shadow=0;glass=0;sketch=0;" vertex="1" parent="Xbx-082tW33KEw9Ka395-63">
          <mxGeometry x="46" y="10" width="80" height="30" as="geometry" />
        </mxCell>
        <mxCell id="Xbx-082tW33KEw9Ka395-65" value="" style="swimlane;horizontal=0;whiteSpace=wrap;html=1;rounded=1;shadow=0;glass=0;sketch=0;strokeColor=#000000;" vertex="1" parent="1">
          <mxGeometry x="720" y="660.62" width="160" height="50" as="geometry" />
        </mxCell>
        <mxCell id="Xbx-082tW33KEw9Ka395-66" value="Koch" style="text;html=1;align=center;verticalAlign=middle;resizable=0;points=[];autosize=1;strokeColor=none;fillColor=none;rounded=1;shadow=0;glass=0;sketch=0;" vertex="1" parent="Xbx-082tW33KEw9Ka395-65">
          <mxGeometry x="55" y="10" width="50" height="30" as="geometry" />
        </mxCell>
        <mxCell id="Xbx-082tW33KEw9Ka395-67" value="" style="endArrow=classic;html=1;rounded=0;entryX=0.611;entryY=1.035;entryDx=0;entryDy=0;entryPerimeter=0;" edge="1" parent="1" target="Xbx-082tW33KEw9Ka395-59">
          <mxGeometry width="50" height="50" relative="1" as="geometry">
            <mxPoint x="610" y="810" as="sourcePoint" />
            <mxPoint x="660" y="760" as="targetPoint" />
          </mxGeometry>
        </mxCell>
        <mxCell id="Xbx-082tW33KEw9Ka395-68" value="" style="endArrow=classic;html=1;rounded=0;exitX=0;exitY=0.5;exitDx=0;exitDy=0;" edge="1" parent="1" source="Xbx-082tW33KEw9Ka395-65" target="Xbx-082tW33KEw9Ka395-25">
          <mxGeometry width="50" height="50" relative="1" as="geometry">
            <mxPoint x="670" y="730" as="sourcePoint" />
            <mxPoint x="720" y="680" as="targetPoint" />
          </mxGeometry>
        </mxCell>
        <mxCell id="Xbx-082tW33KEw9Ka395-69" value="Kira Kitchen" style="rounded=0;whiteSpace=wrap;html=1;shadow=0;glass=0;sketch=0;strokeColor=#000000;" vertex="1" parent="1">
          <mxGeometry x="954" y="660.62" width="120" height="40" as="geometry" />
        </mxCell>
        <mxCell id="Xbx-082tW33KEw9Ka395-70" value="" style="endArrow=none;html=1;rounded=0;entryX=0;entryY=0.5;entryDx=0;entryDy=0;exitX=1;exitY=0.5;exitDx=0;exitDy=0;" edge="1" parent="1" target="Xbx-082tW33KEw9Ka395-69">
          <mxGeometry width="50" height="50" relative="1" as="geometry">
            <mxPoint x="880" y="681.25" as="sourcePoint" />
            <mxPoint x="930" y="670.62" as="targetPoint" />
          </mxGeometry>
        </mxCell>
        <mxCell id="Xbx-082tW33KEw9Ka395-71" value="Jan Mixer" style="rounded=0;whiteSpace=wrap;html=1;shadow=0;glass=0;sketch=0;strokeColor=#000000;" vertex="1" parent="1">
          <mxGeometry x="744" y="810" width="120" height="40" as="geometry" />
        </mxCell>
        <mxCell id="Xbx-082tW33KEw9Ka395-72" value="" style="endArrow=none;html=1;rounded=0;entryX=0;entryY=0.5;entryDx=0;entryDy=0;exitX=1;exitY=0.5;exitDx=0;exitDy=0;" edge="1" parent="1" target="Xbx-082tW33KEw9Ka395-71">
          <mxGeometry width="50" height="50" relative="1" as="geometry">
            <mxPoint x="670" y="830.63" as="sourcePoint" />
            <mxPoint x="720" y="820" as="targetPoint" />
          </mxGeometry>
        </mxCell>
        <mxCell id="Xbx-082tW33KEw9Ka395-73" value="Stelle" style="text;html=1;strokeColor=none;fillColor=none;align=center;verticalAlign=middle;whiteSpace=wrap;rounded=0;shadow=0;glass=0;sketch=0;" vertex="1" parent="1">
          <mxGeometry x="626" y="425.63" width="60" height="30" as="geometry" />
        </mxCell>
        <mxCell id="Xbx-082tW33KEw9Ka395-74" value="Stelle" style="text;html=1;strokeColor=none;fillColor=none;align=center;verticalAlign=middle;whiteSpace=wrap;rounded=0;shadow=0;glass=0;sketch=0;" vertex="1" parent="1">
          <mxGeometry x="767" y="630" width="60" height="30" as="geometry" />
        </mxCell>
        <mxCell id="Xbx-082tW33KEw9Ka395-75" value="Person" style="text;html=1;strokeColor=none;fillColor=none;align=center;verticalAlign=middle;whiteSpace=wrap;rounded=0;shadow=0;glass=0;sketch=0;" vertex="1" parent="1">
          <mxGeometry x="840" y="430" width="60" height="30" as="geometry" />
        </mxCell>
        <mxCell id="Xbx-082tW33KEw9Ka395-76" value="Person" style="text;html=1;strokeColor=none;fillColor=none;align=center;verticalAlign=middle;whiteSpace=wrap;rounded=0;shadow=0;glass=0;sketch=0;" vertex="1" parent="1">
          <mxGeometry x="984" y="630.62" width="60" height="30" as="geometry" />
        </mxCell>
        <mxCell id="Xbx-082tW33KEw9Ka395-77" value="Stelle" style="text;html=1;strokeColor=none;fillColor=none;align=center;verticalAlign=middle;whiteSpace=wrap;rounded=0;shadow=0;glass=0;sketch=0;" vertex="1" parent="1">
          <mxGeometry x="560" y="870" width="60" height="30" as="geometry" />
        </mxCell>
        <mxCell id="Xbx-082tW33KEw9Ka395-78" value="Stelle" style="text;html=1;strokeColor=none;fillColor=none;align=center;verticalAlign=middle;whiteSpace=wrap;rounded=0;shadow=0;glass=0;sketch=0;" vertex="1" parent="1">
          <mxGeometry x="250" y="690" width="60" height="30" as="geometry" />
        </mxCell>
        <mxCell id="Xbx-082tW33KEw9Ka395-81" value="Person" style="text;html=1;strokeColor=none;fillColor=none;align=center;verticalAlign=middle;whiteSpace=wrap;rounded=0;shadow=0;glass=0;sketch=0;" vertex="1" parent="1">
          <mxGeometry x="774" y="780" width="60" height="30" as="geometry" />
        </mxCell>
        <mxCell id="Xbx-082tW33KEw9Ka395-82" value="Person" style="text;html=1;strokeColor=none;fillColor=none;align=center;verticalAlign=middle;whiteSpace=wrap;rounded=0;shadow=0;glass=0;sketch=0;" vertex="1" parent="1">
          <mxGeometry x="50" y="680.62" width="60" height="30" as="geometry" />
        </mxCell>
      </root>
    </mxGraphModel>
  </diagram>
  <diagram id="Va3l4ETO7-160FZQUVHP" name="Seite-2">
    <mxGraphModel dx="1434" dy="658" grid="1" gridSize="10" guides="1" tooltips="1" connect="1" arrows="1" fold="1" page="1" pageScale="1" pageWidth="827" pageHeight="1169" math="0" shadow="0">
      <root>
        <mxCell id="0" />
        <mxCell id="1" parent="0" />
        <mxCell id="0ObdjH2g7g2BHr7NFXew-17" style="edgeStyle=orthogonalEdgeStyle;rounded=0;orthogonalLoop=1;jettySize=auto;html=1;exitX=0.25;exitY=1;exitDx=0;exitDy=0;entryX=0.622;entryY=0.026;entryDx=0;entryDy=0;entryPerimeter=0;" edge="1" parent="1" source="XPmkSgXsj4SGZpHIGy3Y-1" target="XPmkSgXsj4SGZpHIGy3Y-2">
          <mxGeometry relative="1" as="geometry" />
        </mxCell>
        <mxCell id="0ObdjH2g7g2BHr7NFXew-18" style="edgeStyle=orthogonalEdgeStyle;rounded=0;orthogonalLoop=1;jettySize=auto;html=1;exitX=0.5;exitY=1;exitDx=0;exitDy=0;entryX=0.5;entryY=0;entryDx=0;entryDy=0;" edge="1" parent="1" source="XPmkSgXsj4SGZpHIGy3Y-1" target="0ObdjH2g7g2BHr7NFXew-12">
          <mxGeometry relative="1" as="geometry" />
        </mxCell>
        <mxCell id="0ObdjH2g7g2BHr7NFXew-19" style="edgeStyle=orthogonalEdgeStyle;rounded=0;orthogonalLoop=1;jettySize=auto;html=1;exitX=0.75;exitY=1;exitDx=0;exitDy=0;entryX=0.5;entryY=0;entryDx=0;entryDy=0;" edge="1" parent="1" source="XPmkSgXsj4SGZpHIGy3Y-1" target="0ObdjH2g7g2BHr7NFXew-11">
          <mxGeometry relative="1" as="geometry" />
        </mxCell>
        <mxCell id="0ObdjH2g7g2BHr7NFXew-29" style="edgeStyle=orthogonalEdgeStyle;rounded=0;orthogonalLoop=1;jettySize=auto;html=1;exitX=1;exitY=1;exitDx=0;exitDy=0;" edge="1" parent="1" source="XPmkSgXsj4SGZpHIGy3Y-1" target="0ObdjH2g7g2BHr7NFXew-28">
          <mxGeometry relative="1" as="geometry" />
        </mxCell>
        <mxCell id="XPmkSgXsj4SGZpHIGy3Y-1" value="Hotel mit Zimmerservice betreiben" style="rounded=1;whiteSpace=wrap;html=1;shadow=0;glass=0;sketch=0;strokeColor=#000000;" vertex="1" parent="1">
          <mxGeometry x="360" y="10" width="120" height="60" as="geometry" />
        </mxCell>
        <mxCell id="XPmkSgXsj4SGZpHIGy3Y-2" value="Bestellung von Gästen aufnehmen" style="rounded=1;whiteSpace=wrap;html=1;shadow=0;glass=0;sketch=0;strokeColor=#000000;" vertex="1" parent="1">
          <mxGeometry x="200" y="110" width="120" height="60" as="geometry" />
        </mxCell>
        <mxCell id="XPmkSgXsj4SGZpHIGy3Y-3" value="Teilfunktionen" style="text;html=1;strokeColor=none;fillColor=none;align=center;verticalAlign=middle;whiteSpace=wrap;rounded=0;shadow=0;glass=0;sketch=0;" vertex="1" parent="1">
          <mxGeometry x="160" y="70" width="90" height="30" as="geometry" />
        </mxCell>
        <mxCell id="0ObdjH2g7g2BHr7NFXew-20" style="edgeStyle=orthogonalEdgeStyle;rounded=0;orthogonalLoop=1;jettySize=auto;html=1;exitX=0;exitY=1;exitDx=0;exitDy=0;entryX=0;entryY=0.5;entryDx=0;entryDy=0;" edge="1" parent="1" source="XPmkSgXsj4SGZpHIGy3Y-5" target="0ObdjH2g7g2BHr7NFXew-4">
          <mxGeometry relative="1" as="geometry">
            <Array as="points">
              <mxPoint x="170" y="420" />
            </Array>
          </mxGeometry>
        </mxCell>
        <mxCell id="0ObdjH2g7g2BHr7NFXew-21" style="edgeStyle=orthogonalEdgeStyle;rounded=0;orthogonalLoop=1;jettySize=auto;html=1;exitX=0;exitY=0.75;exitDx=0;exitDy=0;entryX=0;entryY=0.5;entryDx=0;entryDy=0;" edge="1" parent="1" source="XPmkSgXsj4SGZpHIGy3Y-5" target="0ObdjH2g7g2BHr7NFXew-1">
          <mxGeometry relative="1" as="geometry">
            <Array as="points">
              <mxPoint x="170" y="340" />
            </Array>
          </mxGeometry>
        </mxCell>
        <mxCell id="XPmkSgXsj4SGZpHIGy3Y-5" value="Essen bestellt?" style="rounded=1;whiteSpace=wrap;html=1;shadow=0;glass=0;sketch=0;strokeColor=#000000;" vertex="1" parent="1">
          <mxGeometry x="170" y="210" width="120" height="60" as="geometry" />
        </mxCell>
        <mxCell id="0ObdjH2g7g2BHr7NFXew-22" style="edgeStyle=orthogonalEdgeStyle;rounded=0;orthogonalLoop=1;jettySize=auto;html=1;exitX=0;exitY=1;exitDx=0;exitDy=0;entryX=0;entryY=0.5;entryDx=0;entryDy=0;" edge="1" parent="1" source="XPmkSgXsj4SGZpHIGy3Y-6" target="0ObdjH2g7g2BHr7NFXew-6">
          <mxGeometry relative="1" as="geometry" />
        </mxCell>
        <mxCell id="XPmkSgXsj4SGZpHIGy3Y-6" value="Alkoholische Getränke bestellt?" style="rounded=1;whiteSpace=wrap;html=1;shadow=0;glass=0;sketch=0;strokeColor=#000000;" vertex="1" parent="1">
          <mxGeometry x="360" y="210" width="120" height="60" as="geometry" />
        </mxCell>
        <mxCell id="0ObdjH2g7g2BHr7NFXew-25" style="edgeStyle=orthogonalEdgeStyle;rounded=0;orthogonalLoop=1;jettySize=auto;html=1;exitX=0;exitY=1;exitDx=0;exitDy=0;entryX=0;entryY=0.5;entryDx=0;entryDy=0;" edge="1" parent="1" source="XPmkSgXsj4SGZpHIGy3Y-7" target="0ObdjH2g7g2BHr7NFXew-8">
          <mxGeometry relative="1" as="geometry" />
        </mxCell>
        <mxCell id="XPmkSgXsj4SGZpHIGy3Y-7" value="Analkoholische Getränke bestellt?" style="rounded=1;whiteSpace=wrap;html=1;shadow=0;glass=0;sketch=0;strokeColor=#000000;" vertex="1" parent="1">
          <mxGeometry x="530" y="210" width="120" height="60" as="geometry" />
        </mxCell>
        <mxCell id="0ObdjH2g7g2BHr7NFXew-1" value="Ticket schreiben" style="rounded=1;whiteSpace=wrap;html=1;shadow=0;glass=0;sketch=0;strokeColor=#000000;" vertex="1" parent="1">
          <mxGeometry x="190" y="310" width="120" height="60" as="geometry" />
        </mxCell>
        <mxCell id="0ObdjH2g7g2BHr7NFXew-2" value="Hauptfunktion" style="text;html=1;strokeColor=none;fillColor=none;align=center;verticalAlign=middle;whiteSpace=wrap;rounded=0;shadow=0;glass=0;sketch=0;" vertex="1" parent="1">
          <mxGeometry x="270" y="10" width="90" height="30" as="geometry" />
        </mxCell>
        <mxCell id="0ObdjH2g7g2BHr7NFXew-4" value="Essen zubereiten" style="rounded=1;whiteSpace=wrap;html=1;shadow=0;glass=0;sketch=0;strokeColor=#000000;" vertex="1" parent="1">
          <mxGeometry x="190" y="390" width="120" height="60" as="geometry" />
        </mxCell>
        <mxCell id="0ObdjH2g7g2BHr7NFXew-5" value="Wein aus Keller holen" style="rounded=1;whiteSpace=wrap;html=1;shadow=0;glass=0;sketch=0;strokeColor=#000000;" vertex="1" parent="1">
          <mxGeometry x="400" y="400" width="120" height="60" as="geometry" />
        </mxCell>
        <mxCell id="0ObdjH2g7g2BHr7NFXew-23" style="edgeStyle=orthogonalEdgeStyle;rounded=0;orthogonalLoop=1;jettySize=auto;html=1;exitX=0;exitY=0.75;exitDx=0;exitDy=0;entryX=0;entryY=0.5;entryDx=0;entryDy=0;" edge="1" parent="1" source="0ObdjH2g7g2BHr7NFXew-6" target="0ObdjH2g7g2BHr7NFXew-5">
          <mxGeometry relative="1" as="geometry">
            <Array as="points">
              <mxPoint x="380" y="430" />
            </Array>
          </mxGeometry>
        </mxCell>
        <mxCell id="0ObdjH2g7g2BHr7NFXew-24" style="edgeStyle=orthogonalEdgeStyle;rounded=0;orthogonalLoop=1;jettySize=auto;html=1;exitX=0;exitY=1;exitDx=0;exitDy=0;entryX=0;entryY=0.5;entryDx=0;entryDy=0;" edge="1" parent="1" source="0ObdjH2g7g2BHr7NFXew-6" target="0ObdjH2g7g2BHr7NFXew-7">
          <mxGeometry relative="1" as="geometry" />
        </mxCell>
        <mxCell id="0ObdjH2g7g2BHr7NFXew-6" value="Bar benachrichtigen" style="rounded=1;whiteSpace=wrap;html=1;shadow=0;glass=0;sketch=0;strokeColor=#000000;" vertex="1" parent="1">
          <mxGeometry x="380" y="310" width="120" height="60" as="geometry" />
        </mxCell>
        <mxCell id="0ObdjH2g7g2BHr7NFXew-7" value="alkoholische Getränke zubereiten" style="rounded=1;whiteSpace=wrap;html=1;shadow=0;glass=0;sketch=0;strokeColor=#000000;" vertex="1" parent="1">
          <mxGeometry x="400" y="480" width="120" height="60" as="geometry" />
        </mxCell>
        <mxCell id="0ObdjH2g7g2BHr7NFXew-8" value="Kellner:in informieren" style="rounded=1;whiteSpace=wrap;html=1;shadow=0;glass=0;sketch=0;strokeColor=#000000;" vertex="1" parent="1">
          <mxGeometry x="550" y="310" width="120" height="60" as="geometry" />
        </mxCell>
        <mxCell id="0ObdjH2g7g2BHr7NFXew-9" value="Servierwagen bereit stellen&amp;nbsp;" style="rounded=1;whiteSpace=wrap;html=1;shadow=0;glass=0;sketch=0;strokeColor=#000000;" vertex="1" parent="1">
          <mxGeometry x="720" y="280" width="120" height="60" as="geometry" />
        </mxCell>
        <mxCell id="0ObdjH2g7g2BHr7NFXew-10" value="Servierwagen eindecken" style="rounded=1;whiteSpace=wrap;html=1;shadow=0;glass=0;sketch=0;strokeColor=#000000;" vertex="1" parent="1">
          <mxGeometry x="720" y="200" width="120" height="60" as="geometry" />
        </mxCell>
        <mxCell id="0ObdjH2g7g2BHr7NFXew-26" style="edgeStyle=orthogonalEdgeStyle;rounded=0;orthogonalLoop=1;jettySize=auto;html=1;exitX=0;exitY=1;exitDx=0;exitDy=0;entryX=0;entryY=0.5;entryDx=0;entryDy=0;" edge="1" parent="1" source="0ObdjH2g7g2BHr7NFXew-11" target="0ObdjH2g7g2BHr7NFXew-10">
          <mxGeometry relative="1" as="geometry" />
        </mxCell>
        <mxCell id="0ObdjH2g7g2BHr7NFXew-27" style="edgeStyle=orthogonalEdgeStyle;rounded=0;orthogonalLoop=1;jettySize=auto;html=1;exitX=0;exitY=0.75;exitDx=0;exitDy=0;entryX=0;entryY=0.5;entryDx=0;entryDy=0;" edge="1" parent="1" source="0ObdjH2g7g2BHr7NFXew-11" target="0ObdjH2g7g2BHr7NFXew-9">
          <mxGeometry relative="1" as="geometry">
            <Array as="points">
              <mxPoint x="700" y="310" />
            </Array>
          </mxGeometry>
        </mxCell>
        <mxCell id="0ObdjH2g7g2BHr7NFXew-11" value="Essen ausliefern" style="rounded=1;whiteSpace=wrap;html=1;shadow=0;glass=0;sketch=0;strokeColor=#000000;" vertex="1" parent="1">
          <mxGeometry x="700" y="110" width="120" height="60" as="geometry" />
        </mxCell>
        <mxCell id="0ObdjH2g7g2BHr7NFXew-14" style="edgeStyle=orthogonalEdgeStyle;rounded=0;orthogonalLoop=1;jettySize=auto;html=1;exitX=0.25;exitY=1;exitDx=0;exitDy=0;entryX=0.5;entryY=0;entryDx=0;entryDy=0;" edge="1" parent="1" source="0ObdjH2g7g2BHr7NFXew-12" target="XPmkSgXsj4SGZpHIGy3Y-5">
          <mxGeometry relative="1" as="geometry" />
        </mxCell>
        <mxCell id="0ObdjH2g7g2BHr7NFXew-15" style="edgeStyle=orthogonalEdgeStyle;rounded=0;orthogonalLoop=1;jettySize=auto;html=1;exitX=0.5;exitY=1;exitDx=0;exitDy=0;entryX=0.5;entryY=0;entryDx=0;entryDy=0;" edge="1" parent="1" source="0ObdjH2g7g2BHr7NFXew-12" target="XPmkSgXsj4SGZpHIGy3Y-6">
          <mxGeometry relative="1" as="geometry" />
        </mxCell>
        <mxCell id="0ObdjH2g7g2BHr7NFXew-16" style="edgeStyle=orthogonalEdgeStyle;rounded=0;orthogonalLoop=1;jettySize=auto;html=1;exitX=0.75;exitY=1;exitDx=0;exitDy=0;entryX=0.5;entryY=0;entryDx=0;entryDy=0;" edge="1" parent="1" source="0ObdjH2g7g2BHr7NFXew-12" target="XPmkSgXsj4SGZpHIGy3Y-7">
          <mxGeometry relative="1" as="geometry" />
        </mxCell>
        <mxCell id="0ObdjH2g7g2BHr7NFXew-12" value="Bestellung zubereiten" style="rounded=1;whiteSpace=wrap;html=1;shadow=0;glass=0;sketch=0;strokeColor=#000000;" vertex="1" parent="1">
          <mxGeometry x="360" y="110" width="120" height="60" as="geometry" />
        </mxCell>
        <mxCell id="0ObdjH2g7g2BHr7NFXew-28" value="Rechnung schreiben" style="rounded=1;whiteSpace=wrap;html=1;shadow=0;glass=0;sketch=0;strokeColor=#000000;" vertex="1" parent="1">
          <mxGeometry x="840" y="110" width="120" height="60" as="geometry" />
        </mxCell>
      </root>
    </mxGraphModel>
  </diagram>
  <diagram id="cVgSJ54B-GQq-leJfALu" name="Seite-3">
    <mxGraphModel dx="1565" dy="718" grid="1" gridSize="10" guides="1" tooltips="1" connect="1" arrows="1" fold="1" page="1" pageScale="1" pageWidth="827" pageHeight="1169" math="0" shadow="0">
      <root>
        <mxCell id="0" />
        <mxCell id="1" parent="0" />
        <mxCell id="V249d9UkAH60YiofN8VE-2" value="Wachstum sichern" style="shape=loopLimit;whiteSpace=wrap;html=1;rounded=1;shadow=0;glass=0;sketch=0;strokeColor=#000000;size=60;arcSize=0;" vertex="1" parent="1">
          <mxGeometry x="340" width="100" height="90" as="geometry" />
        </mxCell>
        <mxCell id="V249d9UkAH60YiofN8VE-3" value="Aufträge erledigen&amp;nbsp;" style="shape=loopLimit;whiteSpace=wrap;html=1;rounded=1;shadow=0;glass=0;sketch=0;strokeColor=#000000;size=60;arcSize=0;" vertex="1" parent="1">
          <mxGeometry x="340" y="190" width="100" height="90" as="geometry" />
        </mxCell>
        <mxCell id="V249d9UkAH60YiofN8VE-4" value="" style="edgeStyle=segmentEdgeStyle;endArrow=classic;html=1;rounded=0;entryX=0.5;entryY=0;entryDx=0;entryDy=0;exitX=0.5;exitY=1;exitDx=0;exitDy=0;" edge="1" parent="1" source="V249d9UkAH60YiofN8VE-2" target="V249d9UkAH60YiofN8VE-3">
          <mxGeometry width="50" height="50" relative="1" as="geometry">
            <mxPoint x="390" y="100" as="sourcePoint" />
            <mxPoint x="410" y="130" as="targetPoint" />
          </mxGeometry>
        </mxCell>
        <mxCell id="V249d9UkAH60YiofN8VE-5" value="Koordinierung der Bestellungen" style="shape=loopLimit;whiteSpace=wrap;html=1;rounded=1;shadow=0;glass=0;sketch=0;strokeColor=#000000;size=60;arcSize=0;" vertex="1" parent="1">
          <mxGeometry x="130" y="260" width="100" height="110" as="geometry" />
        </mxCell>
        <mxCell id="V249d9UkAH60YiofN8VE-6" value="Wünsche der Gäste allumfassend&amp;nbsp;&amp;nbsp;" style="shape=loopLimit;whiteSpace=wrap;html=1;rounded=1;shadow=0;glass=0;sketch=0;strokeColor=#000000;size=60;arcSize=0;" vertex="1" parent="1">
          <mxGeometry x="520" y="250" width="110" height="110" as="geometry" />
        </mxCell>
        <mxCell id="V249d9UkAH60YiofN8VE-8" value="" style="edgeStyle=segmentEdgeStyle;endArrow=classic;html=1;rounded=0;entryX=0.75;entryY=1;entryDx=0;entryDy=0;" edge="1" parent="1" source="V249d9UkAH60YiofN8VE-6" target="V249d9UkAH60YiofN8VE-3">
          <mxGeometry width="50" height="50" relative="1" as="geometry">
            <mxPoint x="450" y="260" as="sourcePoint" />
            <mxPoint x="500" y="210" as="targetPoint" />
          </mxGeometry>
        </mxCell>
        <mxCell id="V249d9UkAH60YiofN8VE-9" value="" style="edgeStyle=segmentEdgeStyle;endArrow=classic;html=1;rounded=0;entryX=0.095;entryY=0.956;entryDx=0;entryDy=0;entryPerimeter=0;" edge="1" parent="1" target="V249d9UkAH60YiofN8VE-3">
          <mxGeometry width="50" height="50" relative="1" as="geometry">
            <mxPoint x="230" y="300" as="sourcePoint" />
            <mxPoint x="280" y="250" as="targetPoint" />
          </mxGeometry>
        </mxCell>
        <mxCell id="V249d9UkAH60YiofN8VE-12" value="Benachrichtigung der erforderlichen Zuarbeiter" style="rounded=1;whiteSpace=wrap;html=1;shadow=0;glass=0;sketch=0;strokeColor=#000000;arcSize=43;" vertex="1" parent="1">
          <mxGeometry x="120" y="430" width="130" height="70" as="geometry" />
        </mxCell>
        <mxCell id="V249d9UkAH60YiofN8VE-13" value="Rechnung stellen" style="shape=loopLimit;whiteSpace=wrap;html=1;rounded=1;shadow=0;glass=0;sketch=0;strokeColor=#000000;size=60;arcSize=0;" vertex="1" parent="1">
          <mxGeometry x="140" y="140" width="110" height="90" as="geometry" />
        </mxCell>
        <mxCell id="V249d9UkAH60YiofN8VE-14" value="" style="edgeStyle=segmentEdgeStyle;endArrow=classic;html=1;rounded=0;entryX=0.5;entryY=0;entryDx=0;entryDy=0;" edge="1" parent="1" target="V249d9UkAH60YiofN8VE-13">
          <mxGeometry width="50" height="50" relative="1" as="geometry">
            <mxPoint x="390" y="100" as="sourcePoint" />
            <mxPoint x="140" y="130" as="targetPoint" />
            <Array as="points">
              <mxPoint x="390" y="110" />
              <mxPoint x="195" y="110" />
            </Array>
          </mxGeometry>
        </mxCell>
        <mxCell id="V249d9UkAH60YiofN8VE-15" value="" style="edgeStyle=segmentEdgeStyle;endArrow=classic;html=1;rounded=0;entryX=0.5;entryY=1;entryDx=0;entryDy=0;exitX=0.5;exitY=0;exitDx=0;exitDy=0;" edge="1" parent="1" source="V249d9UkAH60YiofN8VE-12">
          <mxGeometry width="50" height="50" relative="1" as="geometry">
            <mxPoint x="170" y="420" as="sourcePoint" />
            <mxPoint x="179.54999999999978" y="370" as="targetPoint" />
          </mxGeometry>
        </mxCell>
        <mxCell id="V249d9UkAH60YiofN8VE-16" value="Alle Komponente der Bestellung aufpassen" style="rounded=1;whiteSpace=wrap;html=1;shadow=0;glass=0;sketch=0;strokeColor=#000000;arcSize=50;" vertex="1" parent="1">
          <mxGeometry x="470" y="430" width="120" height="60" as="geometry" />
        </mxCell>
        <mxCell id="V249d9UkAH60YiofN8VE-17" value="" style="edgeStyle=segmentEdgeStyle;endArrow=classic;html=1;rounded=0;entryX=0.085;entryY=1.035;entryDx=0;entryDy=0;exitX=0.5;exitY=0;exitDx=0;exitDy=0;entryPerimeter=0;" edge="1" parent="1" source="V249d9UkAH60YiofN8VE-16" target="V249d9UkAH60YiofN8VE-6">
          <mxGeometry width="50" height="50" relative="1" as="geometry">
            <mxPoint x="520" y="430" as="sourcePoint" />
            <mxPoint x="529.5499999999997" y="380" as="targetPoint" />
          </mxGeometry>
        </mxCell>
        <mxCell id="V249d9UkAH60YiofN8VE-18" value="Kellner:in Rechnung ausschrieben lassen" style="rounded=1;whiteSpace=wrap;html=1;shadow=0;glass=0;sketch=0;strokeColor=#000000;arcSize=33;" vertex="1" parent="1">
          <mxGeometry x="20" y="230" width="110" height="60" as="geometry" />
        </mxCell>
        <mxCell id="V249d9UkAH60YiofN8VE-19" value="" style="edgeStyle=segmentEdgeStyle;endArrow=classic;html=1;rounded=0;entryX=0;entryY=0.75;entryDx=0;entryDy=0;exitX=0.5;exitY=0;exitDx=0;exitDy=0;" edge="1" parent="1" source="V249d9UkAH60YiofN8VE-18" target="V249d9UkAH60YiofN8VE-13">
          <mxGeometry width="50" height="50" relative="1" as="geometry">
            <mxPoint x="190" y="440" as="sourcePoint" />
            <mxPoint x="199.54999999999973" y="390" as="targetPoint" />
            <Array as="points">
              <mxPoint x="70" y="208" />
            </Array>
          </mxGeometry>
        </mxCell>
        <mxCell id="V249d9UkAH60YiofN8VE-21" value="Sind untergeordnete Ziele von" style="text;html=1;strokeColor=none;fillColor=none;align=center;verticalAlign=middle;whiteSpace=wrap;rounded=0;shadow=0;glass=0;sketch=0;" vertex="1" parent="1">
          <mxGeometry x="190" y="80" width="180" height="40" as="geometry" />
        </mxCell>
        <mxCell id="V249d9UkAH60YiofN8VE-24" value="Ziel" style="text;html=1;strokeColor=none;fillColor=none;align=center;verticalAlign=middle;whiteSpace=wrap;rounded=0;shadow=0;glass=0;sketch=0;" vertex="1" parent="1">
          <mxGeometry x="440" y="15" width="60" height="30" as="geometry" />
        </mxCell>
        <mxCell id="V249d9UkAH60YiofN8VE-25" value="Erfolgsfaktor" style="text;html=1;strokeColor=none;fillColor=none;align=center;verticalAlign=middle;whiteSpace=wrap;rounded=0;shadow=0;glass=0;sketch=0;" vertex="1" parent="1">
          <mxGeometry x="480" y="490" width="100" height="30" as="geometry" />
        </mxCell>
      </root>
    </mxGraphModel>
  </diagram>
  <diagram id="CSi231yRCaRHsqraEmeN" name="Seite-4">
    <mxGraphModel dx="2025" dy="929" grid="1" gridSize="10" guides="1" tooltips="1" connect="1" arrows="1" fold="1" page="1" pageScale="1" pageWidth="827" pageHeight="1169" math="0" shadow="0">
      <root>
        <mxCell id="0" />
        <mxCell id="1" parent="0" />
        <mxCell id="8H4tAOCjn3Vo-fH0qAK2-1" value="Kunde" style="rounded=0;whiteSpace=wrap;html=1;shadow=0;glass=0;sketch=0;strokeColor=#000000;fillColor=#CCFFE6;" vertex="1" parent="1">
          <mxGeometry x="340" y="785" width="120" height="60" as="geometry" />
        </mxCell>
        <mxCell id="8H4tAOCjn3Vo-fH0qAK2-2" value="Kellner" style="rounded=0;whiteSpace=wrap;html=1;shadow=0;glass=0;sketch=0;strokeColor=#000000;fillColor=#CCFFE6;" vertex="1" parent="1">
          <mxGeometry x="130" y="360" width="120" height="60" as="geometry" />
        </mxCell>
        <mxCell id="8H4tAOCjn3Vo-fH0qAK2-3" value="Bestellung" style="rounded=0;whiteSpace=wrap;html=1;shadow=0;glass=0;sketch=0;strokeColor=#000000;fillColor=#CCFFE6;" vertex="1" parent="1">
          <mxGeometry x="340" y="570" width="120" height="60" as="geometry" />
        </mxCell>
        <mxCell id="8H4tAOCjn3Vo-fH0qAK2-4" value="Zimmerservice-Management" style="rounded=0;whiteSpace=wrap;html=1;shadow=0;glass=0;sketch=0;strokeColor=#000000;fillColor=#CCFFE6;" vertex="1" parent="1">
          <mxGeometry x="430" y="360" width="120" height="60" as="geometry" />
        </mxCell>
        <mxCell id="8H4tAOCjn3Vo-fH0qAK2-5" value="Koch" style="rounded=0;whiteSpace=wrap;html=1;shadow=0;glass=0;sketch=0;strokeColor=#000000;fillColor=#CCFFE6;" vertex="1" parent="1">
          <mxGeometry x="590" y="460" width="120" height="60" as="geometry" />
        </mxCell>
        <mxCell id="8H4tAOCjn3Vo-fH0qAK2-6" value="Barkeeper" style="rounded=0;whiteSpace=wrap;html=1;shadow=0;glass=0;sketch=0;strokeColor=#000000;fillColor=#CCFFE6;" vertex="1" parent="1">
          <mxGeometry x="660" y="590" width="120" height="60" as="geometry" />
        </mxCell>
        <mxCell id="8H4tAOCjn3Vo-fH0qAK2-7" value="gibt auf" style="rhombus;whiteSpace=wrap;html=1;rounded=1;shadow=0;glass=0;sketch=0;strokeColor=#000000;arcSize=0;" vertex="1" parent="1">
          <mxGeometry x="335" y="645" width="130" height="80" as="geometry" />
        </mxCell>
        <mxCell id="8H4tAOCjn3Vo-fH0qAK2-8" value="" style="endArrow=none;html=1;rounded=0;entryX=0.5;entryY=0;entryDx=0;entryDy=0;" edge="1" parent="1" source="8H4tAOCjn3Vo-fH0qAK2-3" target="8H4tAOCjn3Vo-fH0qAK2-7">
          <mxGeometry width="50" height="50" relative="1" as="geometry">
            <mxPoint x="400" y="680" as="sourcePoint" />
            <mxPoint x="400" y="700.7106781186548" as="targetPoint" />
          </mxGeometry>
        </mxCell>
        <mxCell id="8H4tAOCjn3Vo-fH0qAK2-9" style="edgeStyle=orthogonalEdgeStyle;rounded=0;orthogonalLoop=1;jettySize=auto;html=1;exitX=0.5;exitY=1;exitDx=0;exitDy=0;" edge="1" parent="1" source="8H4tAOCjn3Vo-fH0qAK2-7" target="8H4tAOCjn3Vo-fH0qAK2-7">
          <mxGeometry relative="1" as="geometry" />
        </mxCell>
        <mxCell id="8H4tAOCjn3Vo-fH0qAK2-10" value="" style="endArrow=none;html=1;rounded=0;" edge="1" parent="1">
          <mxGeometry width="50" height="50" relative="1" as="geometry">
            <mxPoint x="399.5" y="725" as="sourcePoint" />
            <mxPoint x="400" y="785" as="targetPoint" />
          </mxGeometry>
        </mxCell>
        <mxCell id="8H4tAOCjn3Vo-fH0qAK2-11" value="1" style="text;html=1;strokeColor=none;fillColor=none;align=center;verticalAlign=middle;whiteSpace=wrap;rounded=0;shadow=0;glass=0;sketch=0;" vertex="1" parent="1">
          <mxGeometry x="390" y="755" width="60" height="30" as="geometry" />
        </mxCell>
        <mxCell id="8H4tAOCjn3Vo-fH0qAK2-13" value="&lt;u&gt;Zimmernummer&lt;/u&gt;" style="ellipse;whiteSpace=wrap;html=1;rounded=1;shadow=0;glass=0;sketch=0;strokeColor=#000000;" vertex="1" parent="1">
          <mxGeometry x="240" y="895" width="120" height="80" as="geometry" />
        </mxCell>
        <mxCell id="8H4tAOCjn3Vo-fH0qAK2-14" value="Name" style="ellipse;whiteSpace=wrap;html=1;rounded=1;shadow=0;glass=0;sketch=0;strokeColor=#000000;" vertex="1" parent="1">
          <mxGeometry x="430" y="895" width="120" height="80" as="geometry" />
        </mxCell>
        <mxCell id="8H4tAOCjn3Vo-fH0qAK2-15" value="" style="endArrow=none;html=1;rounded=0;entryX=0.74;entryY=0.069;entryDx=0;entryDy=0;entryPerimeter=0;" edge="1" parent="1" target="8H4tAOCjn3Vo-fH0qAK2-13">
          <mxGeometry width="50" height="50" relative="1" as="geometry">
            <mxPoint x="339" y="845" as="sourcePoint" />
            <mxPoint x="339" y="895" as="targetPoint" />
          </mxGeometry>
        </mxCell>
        <mxCell id="8H4tAOCjn3Vo-fH0qAK2-18" value="" style="endArrow=none;html=1;rounded=0;" edge="1" parent="1" target="8H4tAOCjn3Vo-fH0qAK2-14">
          <mxGeometry width="50" height="50" relative="1" as="geometry">
            <mxPoint x="450" y="845" as="sourcePoint" />
            <mxPoint x="439.8000000000002" y="900.52" as="targetPoint" />
          </mxGeometry>
        </mxCell>
        <mxCell id="8H4tAOCjn3Vo-fH0qAK2-19" value="n" style="text;html=1;strokeColor=none;fillColor=none;align=center;verticalAlign=middle;whiteSpace=wrap;rounded=0;shadow=0;glass=0;sketch=0;" vertex="1" parent="1">
          <mxGeometry x="354" y="620" width="60" height="30" as="geometry" />
        </mxCell>
        <mxCell id="8H4tAOCjn3Vo-fH0qAK2-20" value="liefert aus" style="rhombus;whiteSpace=wrap;html=1;rounded=1;shadow=0;glass=0;sketch=0;strokeColor=#000000;arcSize=0;" vertex="1" parent="1">
          <mxGeometry x="224" y="460" width="130" height="80" as="geometry" />
        </mxCell>
        <mxCell id="8H4tAOCjn3Vo-fH0qAK2-21" value="" style="endArrow=none;html=1;rounded=0;exitX=0;exitY=0;exitDx=0;exitDy=0;entryX=1;entryY=1;entryDx=0;entryDy=0;" edge="1" parent="1" source="8H4tAOCjn3Vo-fH0qAK2-3" target="8H4tAOCjn3Vo-fH0qAK2-20">
          <mxGeometry width="50" height="50" relative="1" as="geometry">
            <mxPoint x="330" y="550" as="sourcePoint" />
            <mxPoint x="380" y="500" as="targetPoint" />
          </mxGeometry>
        </mxCell>
        <mxCell id="8H4tAOCjn3Vo-fH0qAK2-22" value="" style="endArrow=none;html=1;rounded=0;exitX=0;exitY=0;exitDx=0;exitDy=0;entryX=1;entryY=1;entryDx=0;entryDy=0;" edge="1" parent="1" source="8H4tAOCjn3Vo-fH0qAK2-20">
          <mxGeometry width="50" height="50" relative="1" as="geometry">
            <mxPoint x="268.5" y="470" as="sourcePoint" />
            <mxPoint x="250" y="420" as="targetPoint" />
          </mxGeometry>
        </mxCell>
        <mxCell id="8H4tAOCjn3Vo-fH0qAK2-25" value="1" style="text;html=1;strokeColor=none;fillColor=none;align=center;verticalAlign=middle;whiteSpace=wrap;rounded=0;shadow=0;glass=0;sketch=0;" vertex="1" parent="1">
          <mxGeometry x="230" y="420" width="60" height="30" as="geometry" />
        </mxCell>
        <mxCell id="8H4tAOCjn3Vo-fH0qAK2-26" value="&lt;u&gt;KellnerID&lt;/u&gt;" style="ellipse;whiteSpace=wrap;html=1;rounded=1;shadow=0;glass=0;sketch=0;strokeColor=#000000;" vertex="1" parent="1">
          <mxGeometry x="180" y="210" width="120" height="80" as="geometry" />
        </mxCell>
        <mxCell id="8H4tAOCjn3Vo-fH0qAK2-28" value="Preis" style="ellipse;whiteSpace=wrap;html=1;rounded=1;shadow=0;glass=0;sketch=0;strokeColor=#000000;" vertex="1" parent="1">
          <mxGeometry x="120" y="590" width="120" height="80" as="geometry" />
        </mxCell>
        <mxCell id="8H4tAOCjn3Vo-fH0qAK2-29" value="" style="endArrow=none;html=1;rounded=0;entryX=0.974;entryY=0.419;entryDx=0;entryDy=0;exitX=0;exitY=0.5;exitDx=0;exitDy=0;entryPerimeter=0;" edge="1" parent="1" source="8H4tAOCjn3Vo-fH0qAK2-3" target="8H4tAOCjn3Vo-fH0qAK2-28">
          <mxGeometry width="50" height="50" relative="1" as="geometry">
            <mxPoint x="270" y="580" as="sourcePoint" />
            <mxPoint x="270" y="660" as="targetPoint" />
          </mxGeometry>
        </mxCell>
        <mxCell id="8H4tAOCjn3Vo-fH0qAK2-30" value="&lt;u&gt;Bestellnummer&lt;/u&gt;" style="ellipse;whiteSpace=wrap;html=1;rounded=1;shadow=0;glass=0;sketch=0;strokeColor=#000000;" vertex="1" parent="1">
          <mxGeometry x="140" y="700" width="120" height="80" as="geometry" />
        </mxCell>
        <mxCell id="8H4tAOCjn3Vo-fH0qAK2-32" value="" style="endArrow=none;html=1;rounded=0;entryX=0.974;entryY=0.419;entryDx=0;entryDy=0;exitX=0;exitY=1;exitDx=0;exitDy=0;entryPerimeter=0;" edge="1" parent="1" source="8H4tAOCjn3Vo-fH0qAK2-3">
          <mxGeometry width="50" height="50" relative="1" as="geometry">
            <mxPoint x="340" y="686.48" as="sourcePoint" />
            <mxPoint x="236.8800000000001" y="710" as="targetPoint" />
          </mxGeometry>
        </mxCell>
        <mxCell id="8H4tAOCjn3Vo-fH0qAK2-33" value="koordiniert" style="rhombus;whiteSpace=wrap;html=1;rounded=1;shadow=0;glass=0;sketch=0;strokeColor=#000000;arcSize=0;" vertex="1" parent="1">
          <mxGeometry x="400" y="470" width="130" height="80" as="geometry" />
        </mxCell>
        <mxCell id="8H4tAOCjn3Vo-fH0qAK2-34" value="n" style="text;html=1;strokeColor=none;fillColor=none;align=center;verticalAlign=middle;whiteSpace=wrap;rounded=0;shadow=0;glass=0;sketch=0;" vertex="1" parent="1">
          <mxGeometry x="400" y="540" width="60" height="30" as="geometry" />
        </mxCell>
        <mxCell id="8H4tAOCjn3Vo-fH0qAK2-35" value="" style="endArrow=none;html=1;rounded=0;exitX=0.75;exitY=1;exitDx=0;exitDy=0;entryX=0;entryY=1;entryDx=0;entryDy=0;" edge="1" parent="1" source="8H4tAOCjn3Vo-fH0qAK2-34" target="8H4tAOCjn3Vo-fH0qAK2-33">
          <mxGeometry width="50" height="50" relative="1" as="geometry">
            <mxPoint x="350" y="580" as="sourcePoint" />
            <mxPoint x="460" y="540" as="targetPoint" />
          </mxGeometry>
        </mxCell>
        <mxCell id="8H4tAOCjn3Vo-fH0qAK2-37" value="" style="endArrow=none;html=1;rounded=0;exitX=0;exitY=0;exitDx=0;exitDy=0;entryX=1;entryY=1;entryDx=0;entryDy=0;startArrow=none;" edge="1" parent="1" source="8H4tAOCjn3Vo-fH0qAK2-23">
          <mxGeometry width="50" height="50" relative="1" as="geometry">
            <mxPoint x="360" y="590" as="sourcePoint" />
            <mxPoint x="341.5" y="540" as="targetPoint" />
          </mxGeometry>
        </mxCell>
        <mxCell id="8H4tAOCjn3Vo-fH0qAK2-23" value="n" style="text;html=1;strokeColor=none;fillColor=none;align=center;verticalAlign=middle;whiteSpace=wrap;rounded=0;shadow=0;glass=0;sketch=0;" vertex="1" parent="1">
          <mxGeometry x="340" y="540" width="40" height="30" as="geometry" />
        </mxCell>
        <mxCell id="8H4tAOCjn3Vo-fH0qAK2-38" value="" style="endArrow=none;html=1;rounded=0;exitX=0;exitY=0;exitDx=0;exitDy=0;" edge="1" parent="1" source="8H4tAOCjn3Vo-fH0qAK2-33">
          <mxGeometry width="50" height="50" relative="1" as="geometry">
            <mxPoint x="360" y="590" as="sourcePoint" />
            <mxPoint x="430" y="410" as="targetPoint" />
            <Array as="points">
              <mxPoint x="430" y="410" />
            </Array>
          </mxGeometry>
        </mxCell>
        <mxCell id="8H4tAOCjn3Vo-fH0qAK2-39" value="1" style="text;html=1;strokeColor=none;fillColor=none;align=center;verticalAlign=middle;whiteSpace=wrap;rounded=0;shadow=0;glass=0;sketch=0;" vertex="1" parent="1">
          <mxGeometry x="384" y="420" width="60" height="30" as="geometry" />
        </mxCell>
        <mxCell id="8H4tAOCjn3Vo-fH0qAK2-41" value="&lt;u&gt;ManagerID&lt;/u&gt;" style="ellipse;whiteSpace=wrap;html=1;rounded=1;shadow=0;glass=0;sketch=0;strokeColor=#000000;" vertex="1" parent="1">
          <mxGeometry x="390" y="210" width="120" height="80" as="geometry" />
        </mxCell>
        <mxCell id="8H4tAOCjn3Vo-fH0qAK2-42" value="" style="endArrow=none;html=1;rounded=0;entryX=0.25;entryY=0;entryDx=0;entryDy=0;exitX=0.5;exitY=1;exitDx=0;exitDy=0;" edge="1" parent="1" source="8H4tAOCjn3Vo-fH0qAK2-41" target="8H4tAOCjn3Vo-fH0qAK2-4">
          <mxGeometry width="50" height="50" relative="1" as="geometry">
            <mxPoint x="423.12" y="280" as="sourcePoint" />
            <mxPoint x="320.0000000000001" y="360" as="targetPoint" />
          </mxGeometry>
        </mxCell>
        <mxCell id="8H4tAOCjn3Vo-fH0qAK2-43" value="" style="endArrow=none;html=1;rounded=0;exitX=0.5;exitY=1;exitDx=0;exitDy=0;entryX=0.75;entryY=0;entryDx=0;entryDy=0;" edge="1" parent="1" source="8H4tAOCjn3Vo-fH0qAK2-26" target="8H4tAOCjn3Vo-fH0qAK2-2">
          <mxGeometry width="50" height="50" relative="1" as="geometry">
            <mxPoint x="320" y="280" as="sourcePoint" />
            <mxPoint x="217" y="360" as="targetPoint" />
          </mxGeometry>
        </mxCell>
        <mxCell id="8H4tAOCjn3Vo-fH0qAK2-44" value="Adresse" style="ellipse;whiteSpace=wrap;html=1;rounded=1;shadow=0;glass=0;sketch=0;strokeColor=#000000;" vertex="1" parent="1">
          <mxGeometry x="30" y="240" width="120" height="80" as="geometry" />
        </mxCell>
        <mxCell id="8H4tAOCjn3Vo-fH0qAK2-47" value="Adresse" style="ellipse;whiteSpace=wrap;html=1;rounded=1;shadow=0;glass=0;sketch=0;strokeColor=#000000;" vertex="1" parent="1">
          <mxGeometry x="520" y="220" width="120" height="80" as="geometry" />
        </mxCell>
        <mxCell id="8H4tAOCjn3Vo-fH0qAK2-48" value="&lt;u&gt;KellnerID&lt;/u&gt;" style="ellipse;whiteSpace=wrap;html=1;rounded=1;shadow=0;glass=0;sketch=0;strokeColor=#000000;" vertex="1" parent="1">
          <mxGeometry x="820" y="550" width="120" height="80" as="geometry" />
        </mxCell>
        <mxCell id="8H4tAOCjn3Vo-fH0qAK2-51" value="Adresse" style="ellipse;whiteSpace=wrap;html=1;rounded=1;shadow=0;glass=0;sketch=0;strokeColor=#000000;" vertex="1" parent="1">
          <mxGeometry x="770" y="410" width="120" height="80" as="geometry" />
        </mxCell>
        <mxCell id="8H4tAOCjn3Vo-fH0qAK2-52" value="&lt;u&gt;KellnerID&lt;/u&gt;" style="ellipse;whiteSpace=wrap;html=1;rounded=1;shadow=0;glass=0;sketch=0;strokeColor=#000000;" vertex="1" parent="1">
          <mxGeometry x="670" y="350" width="120" height="80" as="geometry" />
        </mxCell>
        <mxCell id="8H4tAOCjn3Vo-fH0qAK2-53" value="Adresse" style="ellipse;whiteSpace=wrap;html=1;rounded=1;shadow=0;glass=0;sketch=0;strokeColor=#000000;" vertex="1" parent="1">
          <mxGeometry x="820" y="640" width="120" height="80" as="geometry" />
        </mxCell>
        <mxCell id="8H4tAOCjn3Vo-fH0qAK2-54" value="bereiten zu" style="rhombus;whiteSpace=wrap;html=1;rounded=1;shadow=0;glass=0;sketch=0;strokeColor=#000000;arcSize=0;" vertex="1" parent="1">
          <mxGeometry x="500" y="555" width="130" height="80" as="geometry" />
        </mxCell>
        <mxCell id="8H4tAOCjn3Vo-fH0qAK2-57" value="" style="endArrow=none;html=1;rounded=0;entryX=1;entryY=0.5;entryDx=0;entryDy=0;exitX=0;exitY=0.5;exitDx=0;exitDy=0;" edge="1" parent="1" source="8H4tAOCjn3Vo-fH0qAK2-54" target="8H4tAOCjn3Vo-fH0qAK2-3">
          <mxGeometry width="50" height="50" relative="1" as="geometry">
            <mxPoint x="541.56" y="615" as="sourcePoint" />
            <mxPoint x="438.4400000000001" y="695" as="targetPoint" />
          </mxGeometry>
        </mxCell>
        <mxCell id="8H4tAOCjn3Vo-fH0qAK2-58" value="n" style="text;html=1;strokeColor=none;fillColor=none;align=center;verticalAlign=middle;whiteSpace=wrap;rounded=0;shadow=0;glass=0;sketch=0;" vertex="1" parent="1">
          <mxGeometry x="440" y="590" width="60" height="30" as="geometry" />
        </mxCell>
        <mxCell id="8H4tAOCjn3Vo-fH0qAK2-60" value="1" style="text;html=1;strokeColor=none;fillColor=none;align=center;verticalAlign=middle;whiteSpace=wrap;rounded=0;shadow=0;glass=0;sketch=0;" vertex="1" parent="1">
          <mxGeometry x="550" y="460" width="60" height="30" as="geometry" />
        </mxCell>
        <mxCell id="8H4tAOCjn3Vo-fH0qAK2-61" value="1" style="text;html=1;strokeColor=none;fillColor=none;align=center;verticalAlign=middle;whiteSpace=wrap;rounded=0;shadow=0;glass=0;sketch=0;" vertex="1" parent="1">
          <mxGeometry x="620" y="615" width="60" height="30" as="geometry" />
        </mxCell>
        <mxCell id="8H4tAOCjn3Vo-fH0qAK2-62" value="" style="endArrow=none;html=1;rounded=0;exitX=0;exitY=0.5;exitDx=0;exitDy=0;entryX=1;entryY=0.5;entryDx=0;entryDy=0;" edge="1" parent="1" source="8H4tAOCjn3Vo-fH0qAK2-6" target="8H4tAOCjn3Vo-fH0qAK2-54">
          <mxGeometry width="50" height="50" relative="1" as="geometry">
            <mxPoint x="640" y="655" as="sourcePoint" />
            <mxPoint x="630" y="625" as="targetPoint" />
          </mxGeometry>
        </mxCell>
        <mxCell id="8H4tAOCjn3Vo-fH0qAK2-64" value="" style="endArrow=none;html=1;rounded=0;entryX=1;entryY=0.5;entryDx=0;entryDy=0;exitX=0;exitY=0.5;exitDx=0;exitDy=0;" edge="1" parent="1" source="8H4tAOCjn3Vo-fH0qAK2-5" target="8H4tAOCjn3Vo-fH0qAK2-33">
          <mxGeometry width="50" height="50" relative="1" as="geometry">
            <mxPoint x="616.56" y="660" as="sourcePoint" />
            <mxPoint x="513.44" y="740" as="targetPoint" />
          </mxGeometry>
        </mxCell>
        <mxCell id="8H4tAOCjn3Vo-fH0qAK2-65" value="" style="endArrow=none;html=1;rounded=0;entryX=0.244;entryY=0.906;entryDx=0;entryDy=0;exitX=0.75;exitY=0;exitDx=0;exitDy=0;entryPerimeter=0;" edge="1" parent="1" source="8H4tAOCjn3Vo-fH0qAK2-4" target="8H4tAOCjn3Vo-fH0qAK2-47">
          <mxGeometry width="50" height="50" relative="1" as="geometry">
            <mxPoint x="600" y="500" as="sourcePoint" />
            <mxPoint x="540" y="520" as="targetPoint" />
          </mxGeometry>
        </mxCell>
        <mxCell id="8H4tAOCjn3Vo-fH0qAK2-66" value="" style="endArrow=none;html=1;rounded=0;entryX=0;entryY=1;entryDx=0;entryDy=0;exitX=0.5;exitY=0;exitDx=0;exitDy=0;" edge="1" parent="1" source="8H4tAOCjn3Vo-fH0qAK2-5" target="8H4tAOCjn3Vo-fH0qAK2-52">
          <mxGeometry width="50" height="50" relative="1" as="geometry">
            <mxPoint x="560" y="370" as="sourcePoint" />
            <mxPoint x="599.2800000000002" y="322.48" as="targetPoint" />
            <Array as="points">
              <mxPoint x="670" y="440" />
            </Array>
          </mxGeometry>
        </mxCell>
        <mxCell id="8H4tAOCjn3Vo-fH0qAK2-67" value="" style="endArrow=none;html=1;rounded=0;entryX=0;entryY=0.5;entryDx=0;entryDy=0;exitX=1;exitY=0.25;exitDx=0;exitDy=0;" edge="1" parent="1" source="8H4tAOCjn3Vo-fH0qAK2-5" target="8H4tAOCjn3Vo-fH0qAK2-51">
          <mxGeometry width="50" height="50" relative="1" as="geometry">
            <mxPoint x="660" y="470" as="sourcePoint" />
            <mxPoint x="697.5735931288073" y="428.2842712474619" as="targetPoint" />
            <Array as="points">
              <mxPoint x="730" y="470" />
            </Array>
          </mxGeometry>
        </mxCell>
        <mxCell id="8H4tAOCjn3Vo-fH0qAK2-68" value="" style="endArrow=none;html=1;rounded=0;entryX=0;entryY=0.5;entryDx=0;entryDy=0;exitX=1;exitY=0;exitDx=0;exitDy=0;" edge="1" parent="1" source="8H4tAOCjn3Vo-fH0qAK2-6" target="8H4tAOCjn3Vo-fH0qAK2-48">
          <mxGeometry width="50" height="50" relative="1" as="geometry">
            <mxPoint x="720" y="520" as="sourcePoint" />
            <mxPoint x="780" y="495" as="targetPoint" />
            <Array as="points" />
          </mxGeometry>
        </mxCell>
        <mxCell id="8H4tAOCjn3Vo-fH0qAK2-70" value="" style="endArrow=none;html=1;rounded=0;entryX=0;entryY=0.5;entryDx=0;entryDy=0;exitX=1;exitY=1;exitDx=0;exitDy=0;" edge="1" parent="1" source="8H4tAOCjn3Vo-fH0qAK2-6" target="8H4tAOCjn3Vo-fH0qAK2-53">
          <mxGeometry width="50" height="50" relative="1" as="geometry">
            <mxPoint x="790" y="600" as="sourcePoint" />
            <mxPoint x="830" y="600" as="targetPoint" />
            <Array as="points" />
          </mxGeometry>
        </mxCell>
        <mxCell id="8H4tAOCjn3Vo-fH0qAK2-72" value="Benötigtes Material" style="ellipse;whiteSpace=wrap;html=1;rounded=1;shadow=0;glass=0;sketch=0;strokeColor=#000000;" vertex="1" parent="1">
          <mxGeometry x="30" y="660" width="120" height="80" as="geometry" />
        </mxCell>
        <mxCell id="8H4tAOCjn3Vo-fH0qAK2-73" value="" style="endArrow=none;html=1;rounded=0;entryX=1;entryY=0.5;entryDx=0;entryDy=0;exitX=0;exitY=0.75;exitDx=0;exitDy=0;" edge="1" parent="1" source="8H4tAOCjn3Vo-fH0qAK2-3" target="8H4tAOCjn3Vo-fH0qAK2-72">
          <mxGeometry width="50" height="50" relative="1" as="geometry">
            <mxPoint x="311.56" y="615" as="sourcePoint" />
            <mxPoint x="208.4400000000001" y="695" as="targetPoint" />
          </mxGeometry>
        </mxCell>
        <mxCell id="8H4tAOCjn3Vo-fH0qAK2-74" value="Übernachtungsdauer" style="ellipse;whiteSpace=wrap;html=1;rounded=1;shadow=0;glass=0;sketch=0;strokeColor=#000000;" vertex="1" parent="1">
          <mxGeometry x="335" y="965" width="120" height="80" as="geometry" />
        </mxCell>
        <mxCell id="8H4tAOCjn3Vo-fH0qAK2-75" value="" style="endArrow=none;html=1;rounded=0;exitX=0.5;exitY=1;exitDx=0;exitDy=0;entryX=0.5;entryY=0;entryDx=0;entryDy=0;" edge="1" parent="1" source="8H4tAOCjn3Vo-fH0qAK2-1" target="8H4tAOCjn3Vo-fH0qAK2-74">
          <mxGeometry width="50" height="50" relative="1" as="geometry">
            <mxPoint x="460" y="855" as="sourcePoint" />
            <mxPoint x="482.9547002185177" y="906.6480754916647" as="targetPoint" />
          </mxGeometry>
        </mxCell>
        <mxCell id="8H4tAOCjn3Vo-fH0qAK2-76" value="" style="endArrow=none;html=1;rounded=0;entryX=0;entryY=0;entryDx=0;entryDy=0;" edge="1" parent="1" source="8H4tAOCjn3Vo-fH0qAK2-44" target="8H4tAOCjn3Vo-fH0qAK2-2">
          <mxGeometry width="50" height="50" relative="1" as="geometry">
            <mxPoint x="110" y="320" as="sourcePoint" />
            <mxPoint x="90" y="390" as="targetPoint" />
          </mxGeometry>
        </mxCell>
        <mxCell id="8H4tAOCjn3Vo-fH0qAK2-77" value="Name" style="ellipse;whiteSpace=wrap;html=1;rounded=1;shadow=0;glass=0;sketch=0;strokeColor=#000000;" vertex="1" parent="1">
          <mxGeometry x="710" y="700" width="120" height="80" as="geometry" />
        </mxCell>
        <mxCell id="8H4tAOCjn3Vo-fH0qAK2-78" value="" style="endArrow=none;html=1;rounded=0;" edge="1" parent="1" target="8H4tAOCjn3Vo-fH0qAK2-77">
          <mxGeometry width="50" height="50" relative="1" as="geometry">
            <mxPoint x="730" y="650" as="sourcePoint" />
            <mxPoint x="719.8000000000002" y="705.52" as="targetPoint" />
          </mxGeometry>
        </mxCell>
        <mxCell id="8H4tAOCjn3Vo-fH0qAK2-79" value="Name" style="ellipse;whiteSpace=wrap;html=1;rounded=1;shadow=0;glass=0;sketch=0;strokeColor=#000000;" vertex="1" parent="1">
          <mxGeometry x="720" y="485" width="120" height="80" as="geometry" />
        </mxCell>
        <mxCell id="8H4tAOCjn3Vo-fH0qAK2-80" value="" style="endArrow=none;html=1;rounded=0;exitX=1;exitY=0.5;exitDx=0;exitDy=0;" edge="1" parent="1" target="8H4tAOCjn3Vo-fH0qAK2-79" source="8H4tAOCjn3Vo-fH0qAK2-5">
          <mxGeometry width="50" height="50" relative="1" as="geometry">
            <mxPoint x="740.0000000000002" y="435" as="sourcePoint" />
            <mxPoint x="729.8000000000002" y="490.52" as="targetPoint" />
          </mxGeometry>
        </mxCell>
        <mxCell id="8H4tAOCjn3Vo-fH0qAK2-81" value="Name" style="ellipse;whiteSpace=wrap;html=1;rounded=1;shadow=0;glass=0;sketch=0;strokeColor=#000000;" vertex="1" parent="1">
          <mxGeometry x="570" y="300" width="110" height="80" as="geometry" />
        </mxCell>
        <mxCell id="8H4tAOCjn3Vo-fH0qAK2-82" value="" style="endArrow=none;html=1;rounded=0;exitX=1;exitY=0.5;exitDx=0;exitDy=0;" edge="1" parent="1" target="8H4tAOCjn3Vo-fH0qAK2-81" source="8H4tAOCjn3Vo-fH0qAK2-4">
          <mxGeometry width="50" height="50" relative="1" as="geometry">
            <mxPoint x="580.0000000000002" y="300" as="sourcePoint" />
            <mxPoint x="569.8000000000002" y="355.52" as="targetPoint" />
          </mxGeometry>
        </mxCell>
        <mxCell id="8H4tAOCjn3Vo-fH0qAK2-83" value="Name" style="ellipse;whiteSpace=wrap;html=1;rounded=1;shadow=0;glass=0;sketch=0;strokeColor=#000000;" vertex="1" parent="1">
          <mxGeometry x="280" y="280" width="120" height="80" as="geometry" />
        </mxCell>
        <mxCell id="8H4tAOCjn3Vo-fH0qAK2-84" value="" style="endArrow=none;html=1;rounded=0;exitX=0.984;exitY=0.342;exitDx=0;exitDy=0;exitPerimeter=0;" edge="1" parent="1" target="8H4tAOCjn3Vo-fH0qAK2-83" source="8H4tAOCjn3Vo-fH0qAK2-2">
          <mxGeometry width="50" height="50" relative="1" as="geometry">
            <mxPoint x="310.0000000000002" y="260" as="sourcePoint" />
            <mxPoint x="299.8000000000002" y="315.52" as="targetPoint" />
          </mxGeometry>
        </mxCell>
      </root>
    </mxGraphModel>
  </diagram>
</mxfile>
